<?xml version="1.0" encoding="UTF-8" standalone="no"?>
<!DOCTYPE svg PUBLIC "-//W3C//DTD SVG 1.1//EN" "http://www.w3.org/Graphics/SVG/1.1/DTD/svg11.dtd">
<svg width="100%" height="100%" viewBox="0 0 3195 949" version="1.1" xmlns="http://www.w3.org/2000/svg" xmlns:xlink="http://www.w3.org/1999/xlink" xml:space="preserve" style="fill-rule:evenodd;clip-rule:evenodd;stroke-linecap:round;stroke-linejoin:round;stroke-miterlimit:1.5;">
    <g transform="matrix(1,0,0,1,-354.309,-787.763)">
        <g id="Logo-1" transform="matrix(1,0,0,1,115.809,597.388)">
            <g transform="matrix(0.961414,0,0,0.709229,-76.1521,-396.835)">
                <path d="M3625.11,946.736C3625.11,899.856 3597.03,861.795 3562.45,861.795L414.904,861.795C380.321,861.795 352.244,899.856 352.244,946.736L352.244,2046.93C352.244,2093.81 380.321,2131.88 414.904,2131.88L3562.45,2131.88C3597.03,2131.88 3625.11,2093.81 3625.11,2046.93L3625.11,946.736Z" style="fill:white;stroke:rgb(255,98,98);stroke-width:56.82px;"/>
            </g>
            <g transform="matrix(58.1068,0,0,58.1068,-59381.9,-78705.6)">
                <text x="1028.94px" y="1370.21px" style="font-family:'MiriamLibre-Regular', 'Miriam Libre';font-size:12px;fill:rgb(255,98,98);">L<tspan x="1034.09px 1040.15px 1045.05px 1051.17px 1056.78px 1062.81px 1066.41px 1072.49px " y="1370.21px 1370.21px 1370.21px 1370.21px 1370.21px 1370.21px 1370.21px 1370.21px ">araveles</tspan></text>
            </g>
        </g>
    </g>
</svg>
