<?xml version="1.0" encoding="UTF-8" standalone="no"?>
<!DOCTYPE svg PUBLIC "-//W3C//DTD SVG 1.1//EN" "http://www.w3.org/Graphics/SVG/1.1/DTD/svg11.dtd">
<svg width="100%" height="100%" viewBox="0 0 3195 1178" version="1.1" xmlns="http://www.w3.org/2000/svg" xmlns:xlink="http://www.w3.org/1999/xlink" xml:space="preserve" style="fill-rule:evenodd;clip-rule:evenodd;stroke-linecap:round;stroke-linejoin:round;stroke-miterlimit:1.5;">
    <g transform="matrix(1,0,0,1,-354.309,-787.763)">
        <g id="Logo-1" transform="matrix(1,0,0,1,115.809,597.388)">
            <g transform="matrix(0.961414,0,0,0.889316,-76.1521,-552.033)">
                <path d="M3625.11,946.736C3625.11,899.856 3589.91,861.795 3546.54,861.795L430.815,861.795C387.45,861.795 352.244,899.856 352.244,946.736L352.244,2046.93C352.244,2093.81 387.45,2131.88 430.815,2131.88L3546.54,2131.88C3589.91,2131.88 3625.11,2093.81 3625.11,2046.93L3625.11,946.736Z" style="fill:white;stroke:rgb(255,98,98);stroke-width:51.83px;"/>
            </g>
            <g transform="matrix(3.49744,0,0,3.49744,-2458.45,-7910.23)">
                <text x="835.096px" y="2588.7px" style="font-family:'MiriamLibre-Regular', 'Miriam Libre';font-size:50px;fill:rgb(255,98,98);">C<tspan x="862.146px 890.346px 937.096px " y="2588.7px 2588.7px 2588.7px ">omu</tspan>ni<tspan x="1015.65px 1045.15px 1073.65px " y="2588.7px 2588.7px 2588.7px ">dad</tspan> d<tspan x="1146.4px " y="2588.7px ">e</tspan> L<tspan x="1211.7px 1239.45px 1262.35px 1290.35px 1316.25px 1343.85px " y="2588.7px 2588.7px 2588.7px 2588.7px 2588.7px 2588.7px ">aravel</tspan> en españ<tspan x="1584.7px 1612.4px " y="2588.7px 2588.7px ">ol</tspan></text>
            </g>
            <g transform="matrix(58.1068,0,0,58.1068,-59381.9,-78705.6)">
                <text x="1028.94px" y="1370.21px" style="font-family:'MiriamLibre-Regular', 'Miriam Libre';font-size:12px;fill:rgb(255,98,98);">L<tspan x="1034.09px 1040.15px 1045.05px 1051.17px 1056.78px 1062.81px 1066.41px 1072.49px " y="1370.21px 1370.21px 1370.21px 1370.21px 1370.21px 1370.21px 1370.21px 1370.21px ">araveles</tspan></text>
            </g>
        </g>
    </g>
</svg>
